<svg xmlns="http://www.w3.org/2000/svg" viewBox="0 0 100 100" width="100" height="100">
  <circle cx="50" cy="50" r="50" fill="#010101"/>
  <path d="M62 22v38c0 10-8 18-18 18s-18-8-18-18 8-18 18-18c2 0 4 0.3 6 0.8V32c-2-0.5-4-0.8-6-0.8C28 31.2 15 44.2 15 60s13 28.8 29 28.8 29-13 29-28.8V38c6 4 13 6.5 21 6.5V34c-12 0-21-5.5-21-12h-11z" fill="white"/>
  <path d="M62 22c0 6.5 9 12 21 12V24c-5 0-9.5-2.2-13-5.5C67 15 62 22 62 22z" fill="#25F4EE"/>
  <path d="M44 78.8c7.5 0 13.5-6.2 13.5-14s-6-14-13.5-14-13.5 6.2-13.5 14 6 14 13.5 14z" fill="none" stroke="#FE2C55" stroke-width="4"/>
</svg>
