<svg role="img" viewBox="0 0 24 24" fill="white" xmlns="http://www.w3.org/2000/svg"><title>Sun Microsystems</title><path d="M3.996 0L0 4.001v4.5l4.497 4.496H8.5L12 9.497l3.503 3.5h4.003L24 8.5V4.001L20.004 0h-4.497L12 3.503 8.493 0H3.996zm.506 1.5h3.495L12 5.503 16.003 1.5H19.5L22.5 4.5v3.497L19.498 11H16.5L12 6.503 7.5 11H4.502L1.5 7.997V4.5L4.502 1.5zM0 15.499v4.5L3.996 24h4.497L12 20.497 15.507 24h4.497L24 19.999v-4.5l-4.497-4.497H16l-4 4.003-4-4.003H4.497L0 15.499zm1.5.501L4.5 12.5H8l4 4.003 4-4.003h3.498L22.5 16v3.497L19.5 22.5H16l-4-3.999-4 3.999H4.5L1.5 19.497V16z"/></svg>